<?xml version="1.0" encoding="utf-8" standalone="no"?>
<!DOCTYPE svg PUBLIC "-//W3C//DTD SVG 1.1//EN"
  "http://www.w3.org/Graphics/SVG/1.1/DTD/svg11.dtd">
<svg xmlns:xlink="http://www.w3.org/1999/xlink" width="144pt" height="144pt" viewBox="0 0 144 144" xmlns="http://www.w3.org/2000/svg" version="1.1">
 <metadata>
  <rdf:RDF xmlns:dc="http://purl.org/dc/elements/1.1/" xmlns:cc="http://creativecommons.org/ns#" xmlns:rdf="http://www.w3.org/1999/02/22-rdf-syntax-ns#">
   <cc:Work>
    <dc:type rdf:resource="http://purl.org/dc/dcmitype/StillImage"/>
    <dc:date>2022-09-16T13:45:53.678658</dc:date>
    <dc:format>image/svg+xml</dc:format>
    <dc:creator>
     <cc:Agent>
      <dc:title>Matplotlib v3.5.3, https://matplotlib.org/</dc:title>
     </cc:Agent>
    </dc:creator>
   </cc:Work>
  </rdf:RDF>
 </metadata>
 <defs>
  <style type="text/css">*{stroke-linejoin: round; stroke-linecap: butt}</style>
 </defs>
 <g id="figure_1">
  <g id="patch_1">
   <path d="M 0 144 
L 144 144 
L 144 0 
L 0 0 
z
" style="fill: #ffffff"/>
  </g>
  <g id="axes_1">
   <g id="patch_2">
    <path d="M 18 128.16 
L 129.6 128.16 
L 129.6 17.28 
L 18 17.28 
z
" style="fill: #ffffff"/>
   </g>
   <g id="PathCollection_1">
    <defs>
     <path id="m39ac0be40d" d="M 0 3 
C 0.795609 3 1.55874 2.683901 2.12132 2.12132 
C 2.683901 1.55874 3 0.795609 3 0 
C 3 -0.795609 2.683901 -1.55874 2.12132 -2.12132 
C 1.55874 -2.683901 0.795609 -3 0 -3 
C -0.795609 -3 -1.55874 -2.683901 -2.12132 -2.12132 
C -2.683901 -1.55874 -3 -0.795609 -3 0 
C -3 0.795609 -2.683901 1.55874 -2.12132 2.12132 
C -1.55874 2.683901 -0.795609 3 0 3 
z
" style="stroke: #1f77b4"/>
    </defs>
    <g clip-path="url(#p6b3df05511)">
     <use xlink:href="#m39ac0be40d" x="45.618182" y="60.12" style="fill: #1f77b4; stroke: #1f77b4"/>
     <use xlink:href="#m39ac0be40d" x="39.981818" y="81.12" style="fill: #1f77b4; stroke: #1f77b4"/>
     <use xlink:href="#m39ac0be40d" x="34.345455" y="72.72" style="fill: #1f77b4; stroke: #1f77b4"/>
     <use xlink:href="#m39ac0be40d" x="31.527273" y="76.92" style="fill: #1f77b4; stroke: #1f77b4"/>
     <use xlink:href="#m39ac0be40d" x="42.8" y="55.92" style="fill: #1f77b4; stroke: #1f77b4"/>
     <use xlink:href="#m39ac0be40d" x="54.072727" y="43.32" style="fill: #1f77b4; stroke: #1f77b4"/>
     <use xlink:href="#m39ac0be40d" x="31.527273" y="64.32" style="fill: #1f77b4; stroke: #1f77b4"/>
     <use xlink:href="#m39ac0be40d" x="42.8" y="64.32" style="fill: #1f77b4; stroke: #1f77b4"/>
     <use xlink:href="#m39ac0be40d" x="25.890909" y="85.32" style="fill: #1f77b4; stroke: #1f77b4"/>
     <use xlink:href="#m39ac0be40d" x="39.981818" y="76.92" style="fill: #1f77b4; stroke: #1f77b4"/>
     <use xlink:href="#m39ac0be40d" x="54.072727" y="51.72" style="fill: #1f77b4; stroke: #1f77b4"/>
     <use xlink:href="#m39ac0be40d" x="37.163636" y="64.32" style="fill: #1f77b4; stroke: #1f77b4"/>
     <use xlink:href="#m39ac0be40d" x="37.163636" y="81.12" style="fill: #1f77b4; stroke: #1f77b4"/>
     <use xlink:href="#m39ac0be40d" x="23.072727" y="81.12" style="fill: #1f77b4; stroke: #1f77b4"/>
     <use xlink:href="#m39ac0be40d" x="65.345455" y="39.12" style="fill: #1f77b4; stroke: #1f77b4"/>
     <use xlink:href="#m39ac0be40d" x="62.527273" y="22.32" style="fill: #1f77b4; stroke: #1f77b4"/>
     <use xlink:href="#m39ac0be40d" x="54.072727" y="43.32" style="fill: #1f77b4; stroke: #1f77b4"/>
     <use xlink:href="#m39ac0be40d" x="45.618182" y="60.12" style="fill: #1f77b4; stroke: #1f77b4"/>
     <use xlink:href="#m39ac0be40d" x="62.527273" y="47.52" style="fill: #1f77b4; stroke: #1f77b4"/>
     <use xlink:href="#m39ac0be40d" x="45.618182" y="47.52" style="fill: #1f77b4; stroke: #1f77b4"/>
     <use xlink:href="#m39ac0be40d" x="54.072727" y="64.32" style="fill: #1f77b4; stroke: #1f77b4"/>
     <use xlink:href="#m39ac0be40d" x="45.618182" y="51.72" style="fill: #1f77b4; stroke: #1f77b4"/>
     <use xlink:href="#m39ac0be40d" x="31.527273" y="55.92" style="fill: #1f77b4; stroke: #1f77b4"/>
     <use xlink:href="#m39ac0be40d" x="45.618182" y="68.52" style="fill: #1f77b4; stroke: #1f77b4"/>
     <use xlink:href="#m39ac0be40d" x="37.163636" y="64.32" style="fill: #1f77b4; stroke: #1f77b4"/>
     <use xlink:href="#m39ac0be40d" x="42.8" y="81.12" style="fill: #1f77b4; stroke: #1f77b4"/>
     <use xlink:href="#m39ac0be40d" x="42.8" y="64.32" style="fill: #1f77b4; stroke: #1f77b4"/>
     <use xlink:href="#m39ac0be40d" x="48.436364" y="60.12" style="fill: #1f77b4; stroke: #1f77b4"/>
     <use xlink:href="#m39ac0be40d" x="48.436364" y="64.32" style="fill: #1f77b4; stroke: #1f77b4"/>
     <use xlink:href="#m39ac0be40d" x="34.345455" y="72.72" style="fill: #1f77b4; stroke: #1f77b4"/>
     <use xlink:href="#m39ac0be40d" x="37.163636" y="76.92" style="fill: #1f77b4; stroke: #1f77b4"/>
     <use xlink:href="#m39ac0be40d" x="54.072727" y="64.32" style="fill: #1f77b4; stroke: #1f77b4"/>
     <use xlink:href="#m39ac0be40d" x="48.436364" y="34.92" style="fill: #1f77b4; stroke: #1f77b4"/>
     <use xlink:href="#m39ac0be40d" x="56.890909" y="30.72" style="fill: #1f77b4; stroke: #1f77b4"/>
     <use xlink:href="#m39ac0be40d" x="39.981818" y="76.92" style="fill: #1f77b4; stroke: #1f77b4"/>
     <use xlink:href="#m39ac0be40d" x="42.8" y="72.72" style="fill: #1f77b4; stroke: #1f77b4"/>
     <use xlink:href="#m39ac0be40d" x="56.890909" y="60.12" style="fill: #1f77b4; stroke: #1f77b4"/>
     <use xlink:href="#m39ac0be40d" x="39.981818" y="55.92" style="fill: #1f77b4; stroke: #1f77b4"/>
     <use xlink:href="#m39ac0be40d" x="25.890909" y="81.12" style="fill: #1f77b4; stroke: #1f77b4"/>
     <use xlink:href="#m39ac0be40d" x="45.618182" y="64.32" style="fill: #1f77b4; stroke: #1f77b4"/>
     <use xlink:href="#m39ac0be40d" x="42.8" y="60.12" style="fill: #1f77b4; stroke: #1f77b4"/>
     <use xlink:href="#m39ac0be40d" x="28.709091" y="110.52" style="fill: #1f77b4; stroke: #1f77b4"/>
     <use xlink:href="#m39ac0be40d" x="25.890909" y="72.72" style="fill: #1f77b4; stroke: #1f77b4"/>
     <use xlink:href="#m39ac0be40d" x="42.8" y="60.12" style="fill: #1f77b4; stroke: #1f77b4"/>
     <use xlink:href="#m39ac0be40d" x="45.618182" y="47.52" style="fill: #1f77b4; stroke: #1f77b4"/>
     <use xlink:href="#m39ac0be40d" x="37.163636" y="81.12" style="fill: #1f77b4; stroke: #1f77b4"/>
     <use xlink:href="#m39ac0be40d" x="45.618182" y="47.52" style="fill: #1f77b4; stroke: #1f77b4"/>
     <use xlink:href="#m39ac0be40d" x="31.527273" y="72.72" style="fill: #1f77b4; stroke: #1f77b4"/>
     <use xlink:href="#m39ac0be40d" x="51.254545" y="51.72" style="fill: #1f77b4; stroke: #1f77b4"/>
     <use xlink:href="#m39ac0be40d" x="42.8" y="68.52" style="fill: #1f77b4; stroke: #1f77b4"/>
     <use xlink:href="#m39ac0be40d" x="99.163636" y="72.72" style="fill: #1f77b4; stroke: #1f77b4"/>
     <use xlink:href="#m39ac0be40d" x="82.254545" y="72.72" style="fill: #1f77b4; stroke: #1f77b4"/>
     <use xlink:href="#m39ac0be40d" x="96.345455" y="76.92" style="fill: #1f77b4; stroke: #1f77b4"/>
     <use xlink:href="#m39ac0be40d" x="56.890909" y="110.52" style="fill: #1f77b4; stroke: #1f77b4"/>
     <use xlink:href="#m39ac0be40d" x="85.072727" y="89.52" style="fill: #1f77b4; stroke: #1f77b4"/>
     <use xlink:href="#m39ac0be40d" x="62.527273" y="89.52" style="fill: #1f77b4; stroke: #1f77b4"/>
     <use xlink:href="#m39ac0be40d" x="79.436364" y="68.52" style="fill: #1f77b4; stroke: #1f77b4"/>
     <use xlink:href="#m39ac0be40d" x="39.981818" y="106.32" style="fill: #1f77b4; stroke: #1f77b4"/>
     <use xlink:href="#m39ac0be40d" x="87.890909" y="85.32" style="fill: #1f77b4; stroke: #1f77b4"/>
     <use xlink:href="#m39ac0be40d" x="48.436364" y="93.72" style="fill: #1f77b4; stroke: #1f77b4"/>
     <use xlink:href="#m39ac0be40d" x="42.8" y="123.12" style="fill: #1f77b4; stroke: #1f77b4"/>
     <use xlink:href="#m39ac0be40d" x="68.163636" y="81.12" style="fill: #1f77b4; stroke: #1f77b4"/>
     <use xlink:href="#m39ac0be40d" x="70.981818" y="114.72" style="fill: #1f77b4; stroke: #1f77b4"/>
     <use xlink:href="#m39ac0be40d" x="73.8" y="85.32" style="fill: #1f77b4; stroke: #1f77b4"/>
     <use xlink:href="#m39ac0be40d" x="59.709091" y="85.32" style="fill: #1f77b4; stroke: #1f77b4"/>
     <use xlink:href="#m39ac0be40d" x="90.709091" y="76.92" style="fill: #1f77b4; stroke: #1f77b4"/>
     <use xlink:href="#m39ac0be40d" x="59.709091" y="81.12" style="fill: #1f77b4; stroke: #1f77b4"/>
     <use xlink:href="#m39ac0be40d" x="65.345455" y="93.72" style="fill: #1f77b4; stroke: #1f77b4"/>
     <use xlink:href="#m39ac0be40d" x="76.618182" y="114.72" style="fill: #1f77b4; stroke: #1f77b4"/>
     <use xlink:href="#m39ac0be40d" x="59.709091" y="102.12" style="fill: #1f77b4; stroke: #1f77b4"/>
     <use xlink:href="#m39ac0be40d" x="68.163636" y="72.72" style="fill: #1f77b4; stroke: #1f77b4"/>
     <use xlink:href="#m39ac0be40d" x="73.8" y="89.52" style="fill: #1f77b4; stroke: #1f77b4"/>
     <use xlink:href="#m39ac0be40d" x="79.436364" y="102.12" style="fill: #1f77b4; stroke: #1f77b4"/>
     <use xlink:href="#m39ac0be40d" x="73.8" y="89.52" style="fill: #1f77b4; stroke: #1f77b4"/>
     <use xlink:href="#m39ac0be40d" x="82.254545" y="85.32" style="fill: #1f77b4; stroke: #1f77b4"/>
     <use xlink:href="#m39ac0be40d" x="87.890909" y="81.12" style="fill: #1f77b4; stroke: #1f77b4"/>
     <use xlink:href="#m39ac0be40d" x="93.527273" y="89.52" style="fill: #1f77b4; stroke: #1f77b4"/>
     <use xlink:href="#m39ac0be40d" x="90.709091" y="81.12" style="fill: #1f77b4; stroke: #1f77b4"/>
     <use xlink:href="#m39ac0be40d" x="70.981818" y="85.32" style="fill: #1f77b4; stroke: #1f77b4"/>
     <use xlink:href="#m39ac0be40d" x="62.527273" y="97.92" style="fill: #1f77b4; stroke: #1f77b4"/>
     <use xlink:href="#m39ac0be40d" x="56.890909" y="106.32" style="fill: #1f77b4; stroke: #1f77b4"/>
     <use xlink:href="#m39ac0be40d" x="56.890909" y="106.32" style="fill: #1f77b4; stroke: #1f77b4"/>
     <use xlink:href="#m39ac0be40d" x="65.345455" y="93.72" style="fill: #1f77b4; stroke: #1f77b4"/>
     <use xlink:href="#m39ac0be40d" x="70.981818" y="93.72" style="fill: #1f77b4; stroke: #1f77b4"/>
     <use xlink:href="#m39ac0be40d" x="54.072727" y="81.12" style="fill: #1f77b4; stroke: #1f77b4"/>
     <use xlink:href="#m39ac0be40d" x="70.981818" y="64.32" style="fill: #1f77b4; stroke: #1f77b4"/>
     <use xlink:href="#m39ac0be40d" x="90.709091" y="76.92" style="fill: #1f77b4; stroke: #1f77b4"/>
     <use xlink:href="#m39ac0be40d" x="79.436364" y="110.52" style="fill: #1f77b4; stroke: #1f77b4"/>
     <use xlink:href="#m39ac0be40d" x="59.709091" y="81.12" style="fill: #1f77b4; stroke: #1f77b4"/>
     <use xlink:href="#m39ac0be40d" x="56.890909" y="102.12" style="fill: #1f77b4; stroke: #1f77b4"/>
     <use xlink:href="#m39ac0be40d" x="56.890909" y="97.92" style="fill: #1f77b4; stroke: #1f77b4"/>
     <use xlink:href="#m39ac0be40d" x="73.8" y="81.12" style="fill: #1f77b4; stroke: #1f77b4"/>
     <use xlink:href="#m39ac0be40d" x="65.345455" y="97.92" style="fill: #1f77b4; stroke: #1f77b4"/>
     <use xlink:href="#m39ac0be40d" x="42.8" y="110.52" style="fill: #1f77b4; stroke: #1f77b4"/>
     <use xlink:href="#m39ac0be40d" x="59.709091" y="93.72" style="fill: #1f77b4; stroke: #1f77b4"/>
     <use xlink:href="#m39ac0be40d" x="62.527273" y="81.12" style="fill: #1f77b4; stroke: #1f77b4"/>
     <use xlink:href="#m39ac0be40d" x="62.527273" y="85.32" style="fill: #1f77b4; stroke: #1f77b4"/>
     <use xlink:href="#m39ac0be40d" x="76.618182" y="85.32" style="fill: #1f77b4; stroke: #1f77b4"/>
     <use xlink:href="#m39ac0be40d" x="45.618182" y="102.12" style="fill: #1f77b4; stroke: #1f77b4"/>
     <use xlink:href="#m39ac0be40d" x="62.527273" y="89.52" style="fill: #1f77b4; stroke: #1f77b4"/>
     <use xlink:href="#m39ac0be40d" x="79.436364" y="68.52" style="fill: #1f77b4; stroke: #1f77b4"/>
     <use xlink:href="#m39ac0be40d" x="65.345455" y="93.72" style="fill: #1f77b4; stroke: #1f77b4"/>
     <use xlink:href="#m39ac0be40d" x="101.981818" y="81.12" style="fill: #1f77b4; stroke: #1f77b4"/>
     <use xlink:href="#m39ac0be40d" x="79.436364" y="85.32" style="fill: #1f77b4; stroke: #1f77b4"/>
     <use xlink:href="#m39ac0be40d" x="85.072727" y="81.12" style="fill: #1f77b4; stroke: #1f77b4"/>
     <use xlink:href="#m39ac0be40d" x="116.072727" y="81.12" style="fill: #1f77b4; stroke: #1f77b4"/>
     <use xlink:href="#m39ac0be40d" x="39.981818" y="102.12" style="fill: #1f77b4; stroke: #1f77b4"/>
     <use xlink:href="#m39ac0be40d" x="107.618182" y="85.32" style="fill: #1f77b4; stroke: #1f77b4"/>
     <use xlink:href="#m39ac0be40d" x="90.709091" y="102.12" style="fill: #1f77b4; stroke: #1f77b4"/>
     <use xlink:href="#m39ac0be40d" x="104.8" y="55.92" style="fill: #1f77b4; stroke: #1f77b4"/>
     <use xlink:href="#m39ac0be40d" x="85.072727" y="72.72" style="fill: #1f77b4; stroke: #1f77b4"/>
     <use xlink:href="#m39ac0be40d" x="82.254545" y="93.72" style="fill: #1f77b4; stroke: #1f77b4"/>
     <use xlink:href="#m39ac0be40d" x="93.527273" y="81.12" style="fill: #1f77b4; stroke: #1f77b4"/>
     <use xlink:href="#m39ac0be40d" x="62.527273" y="102.12" style="fill: #1f77b4; stroke: #1f77b4"/>
     <use xlink:href="#m39ac0be40d" x="65.345455" y="89.52" style="fill: #1f77b4; stroke: #1f77b4"/>
     <use xlink:href="#m39ac0be40d" x="82.254545" y="72.72" style="fill: #1f77b4; stroke: #1f77b4"/>
     <use xlink:href="#m39ac0be40d" x="85.072727" y="81.12" style="fill: #1f77b4; stroke: #1f77b4"/>
     <use xlink:href="#m39ac0be40d" x="118.890909" y="47.52" style="fill: #1f77b4; stroke: #1f77b4"/>
     <use xlink:href="#m39ac0be40d" x="118.890909" y="97.92" style="fill: #1f77b4; stroke: #1f77b4"/>
     <use xlink:href="#m39ac0be40d" x="70.981818" y="114.72" style="fill: #1f77b4; stroke: #1f77b4"/>
     <use xlink:href="#m39ac0be40d" x="96.345455" y="72.72" style="fill: #1f77b4; stroke: #1f77b4"/>
     <use xlink:href="#m39ac0be40d" x="59.709091" y="89.52" style="fill: #1f77b4; stroke: #1f77b4"/>
     <use xlink:href="#m39ac0be40d" x="118.890909" y="89.52" style="fill: #1f77b4; stroke: #1f77b4"/>
     <use xlink:href="#m39ac0be40d" x="79.436364" y="93.72" style="fill: #1f77b4; stroke: #1f77b4"/>
     <use xlink:href="#m39ac0be40d" x="90.709091" y="68.52" style="fill: #1f77b4; stroke: #1f77b4"/>
     <use xlink:href="#m39ac0be40d" x="104.8" y="72.72" style="fill: #1f77b4; stroke: #1f77b4"/>
     <use xlink:href="#m39ac0be40d" x="76.618182" y="89.52" style="fill: #1f77b4; stroke: #1f77b4"/>
     <use xlink:href="#m39ac0be40d" x="73.8" y="81.12" style="fill: #1f77b4; stroke: #1f77b4"/>
     <use xlink:href="#m39ac0be40d" x="82.254545" y="89.52" style="fill: #1f77b4; stroke: #1f77b4"/>
     <use xlink:href="#m39ac0be40d" x="104.8" y="81.12" style="fill: #1f77b4; stroke: #1f77b4"/>
     <use xlink:href="#m39ac0be40d" x="110.436364" y="89.52" style="fill: #1f77b4; stroke: #1f77b4"/>
     <use xlink:href="#m39ac0be40d" x="124.527273" y="47.52" style="fill: #1f77b4; stroke: #1f77b4"/>
     <use xlink:href="#m39ac0be40d" x="82.254545" y="89.52" style="fill: #1f77b4; stroke: #1f77b4"/>
     <use xlink:href="#m39ac0be40d" x="79.436364" y="89.52" style="fill: #1f77b4; stroke: #1f77b4"/>
     <use xlink:href="#m39ac0be40d" x="73.8" y="97.92" style="fill: #1f77b4; stroke: #1f77b4"/>
     <use xlink:href="#m39ac0be40d" x="118.890909" y="81.12" style="fill: #1f77b4; stroke: #1f77b4"/>
     <use xlink:href="#m39ac0be40d" x="79.436364" y="64.32" style="fill: #1f77b4; stroke: #1f77b4"/>
     <use xlink:href="#m39ac0be40d" x="82.254545" y="76.92" style="fill: #1f77b4; stroke: #1f77b4"/>
     <use xlink:href="#m39ac0be40d" x="70.981818" y="81.12" style="fill: #1f77b4; stroke: #1f77b4"/>
     <use xlink:href="#m39ac0be40d" x="96.345455" y="76.92" style="fill: #1f77b4; stroke: #1f77b4"/>
     <use xlink:href="#m39ac0be40d" x="90.709091" y="76.92" style="fill: #1f77b4; stroke: #1f77b4"/>
     <use xlink:href="#m39ac0be40d" x="96.345455" y="76.92" style="fill: #1f77b4; stroke: #1f77b4"/>
     <use xlink:href="#m39ac0be40d" x="65.345455" y="93.72" style="fill: #1f77b4; stroke: #1f77b4"/>
     <use xlink:href="#m39ac0be40d" x="93.527273" y="72.72" style="fill: #1f77b4; stroke: #1f77b4"/>
     <use xlink:href="#m39ac0be40d" x="90.709091" y="68.52" style="fill: #1f77b4; stroke: #1f77b4"/>
     <use xlink:href="#m39ac0be40d" x="90.709091" y="81.12" style="fill: #1f77b4; stroke: #1f77b4"/>
     <use xlink:href="#m39ac0be40d" x="79.436364" y="102.12" style="fill: #1f77b4; stroke: #1f77b4"/>
     <use xlink:href="#m39ac0be40d" x="85.072727" y="81.12" style="fill: #1f77b4; stroke: #1f77b4"/>
     <use xlink:href="#m39ac0be40d" x="76.618182" y="64.32" style="fill: #1f77b4; stroke: #1f77b4"/>
     <use xlink:href="#m39ac0be40d" x="68.163636" y="81.12" style="fill: #1f77b4; stroke: #1f77b4"/>
    </g>
   </g>
   <g id="matplotlib.axis_1">
    <g id="xtick_1">
     <g id="line2d_1">
      <defs>
       <path id="m7d6db4234a" d="M 0 0 
L 0 3.5 
" style="stroke: #000000; stroke-width: 0.8"/>
      </defs>
      <g>
       <use xlink:href="#m7d6db4234a" x="70.981818" y="128.16" style="stroke: #000000; stroke-width: 0.8"/>
      </g>
     </g>
     <g id="text_1">
      <!-- 6 -->
      <g transform="translate(67.800568 142.758438)scale(0.1 -0.1)">
       <defs>
        <path id="DejaVuSans-36" d="M 2113 2584 
Q 1688 2584 1439 2293 
Q 1191 2003 1191 1497 
Q 1191 994 1439 701 
Q 1688 409 2113 409 
Q 2538 409 2786 701 
Q 3034 994 3034 1497 
Q 3034 2003 2786 2293 
Q 2538 2584 2113 2584 
z
M 3366 4563 
L 3366 3988 
Q 3128 4100 2886 4159 
Q 2644 4219 2406 4219 
Q 1781 4219 1451 3797 
Q 1122 3375 1075 2522 
Q 1259 2794 1537 2939 
Q 1816 3084 2150 3084 
Q 2853 3084 3261 2657 
Q 3669 2231 3669 1497 
Q 3669 778 3244 343 
Q 2819 -91 2113 -91 
Q 1303 -91 875 529 
Q 447 1150 447 2328 
Q 447 3434 972 4092 
Q 1497 4750 2381 4750 
Q 2619 4750 2861 4703 
Q 3103 4656 3366 4563 
z
" transform="scale(0.015625)"/>
       </defs>
       <use xlink:href="#DejaVuSans-36"/>
      </g>
     </g>
    </g>
    <g id="xtick_2">
     <g id="line2d_2">
      <g>
       <use xlink:href="#m7d6db4234a" x="127.345455" y="128.16" style="stroke: #000000; stroke-width: 0.8"/>
      </g>
     </g>
     <g id="text_2">
      <!-- 8 -->
      <g transform="translate(124.164205 142.758438)scale(0.1 -0.1)">
       <defs>
        <path id="DejaVuSans-38" d="M 2034 2216 
Q 1584 2216 1326 1975 
Q 1069 1734 1069 1313 
Q 1069 891 1326 650 
Q 1584 409 2034 409 
Q 2484 409 2743 651 
Q 3003 894 3003 1313 
Q 3003 1734 2745 1975 
Q 2488 2216 2034 2216 
z
M 1403 2484 
Q 997 2584 770 2862 
Q 544 3141 544 3541 
Q 544 4100 942 4425 
Q 1341 4750 2034 4750 
Q 2731 4750 3128 4425 
Q 3525 4100 3525 3541 
Q 3525 3141 3298 2862 
Q 3072 2584 2669 2484 
Q 3125 2378 3379 2068 
Q 3634 1759 3634 1313 
Q 3634 634 3220 271 
Q 2806 -91 2034 -91 
Q 1263 -91 848 271 
Q 434 634 434 1313 
Q 434 1759 690 2068 
Q 947 2378 1403 2484 
z
M 1172 3481 
Q 1172 3119 1398 2916 
Q 1625 2713 2034 2713 
Q 2441 2713 2670 2916 
Q 2900 3119 2900 3481 
Q 2900 3844 2670 4047 
Q 2441 4250 2034 4250 
Q 1625 4250 1398 4047 
Q 1172 3844 1172 3481 
z
" transform="scale(0.015625)"/>
       </defs>
       <use xlink:href="#DejaVuSans-38"/>
      </g>
     </g>
    </g>
   </g>
   <g id="matplotlib.axis_2">
    <g id="ytick_1">
     <g id="line2d_3">
      <defs>
       <path id="md4fbe78c75" d="M 0 0 
L -3.5 0 
" style="stroke: #000000; stroke-width: 0.8"/>
      </defs>
      <g>
       <use xlink:href="#md4fbe78c75" x="18" y="123.12" style="stroke: #000000; stroke-width: 0.8"/>
      </g>
     </g>
     <g id="text_3">
      <!-- 2 -->
      <g transform="translate(4.6375 126.919219)scale(0.1 -0.1)">
       <defs>
        <path id="DejaVuSans-32" d="M 1228 531 
L 3431 531 
L 3431 0 
L 469 0 
L 469 531 
Q 828 903 1448 1529 
Q 2069 2156 2228 2338 
Q 2531 2678 2651 2914 
Q 2772 3150 2772 3378 
Q 2772 3750 2511 3984 
Q 2250 4219 1831 4219 
Q 1534 4219 1204 4116 
Q 875 4013 500 3803 
L 500 4441 
Q 881 4594 1212 4672 
Q 1544 4750 1819 4750 
Q 2544 4750 2975 4387 
Q 3406 4025 3406 3419 
Q 3406 3131 3298 2873 
Q 3191 2616 2906 2266 
Q 2828 2175 2409 1742 
Q 1991 1309 1228 531 
z
" transform="scale(0.015625)"/>
       </defs>
       <use xlink:href="#DejaVuSans-32"/>
      </g>
     </g>
    </g>
    <g id="ytick_2">
     <g id="line2d_4">
      <g>
       <use xlink:href="#md4fbe78c75" x="18" y="81.12" style="stroke: #000000; stroke-width: 0.8"/>
      </g>
     </g>
     <g id="text_4">
      <!-- 3 -->
      <g transform="translate(4.6375 84.919219)scale(0.1 -0.1)">
       <defs>
        <path id="DejaVuSans-33" d="M 2597 2516 
Q 3050 2419 3304 2112 
Q 3559 1806 3559 1356 
Q 3559 666 3084 287 
Q 2609 -91 1734 -91 
Q 1441 -91 1130 -33 
Q 819 25 488 141 
L 488 750 
Q 750 597 1062 519 
Q 1375 441 1716 441 
Q 2309 441 2620 675 
Q 2931 909 2931 1356 
Q 2931 1769 2642 2001 
Q 2353 2234 1838 2234 
L 1294 2234 
L 1294 2753 
L 1863 2753 
Q 2328 2753 2575 2939 
Q 2822 3125 2822 3475 
Q 2822 3834 2567 4026 
Q 2313 4219 1838 4219 
Q 1578 4219 1281 4162 
Q 984 4106 628 3988 
L 628 4550 
Q 988 4650 1302 4700 
Q 1616 4750 1894 4750 
Q 2613 4750 3031 4423 
Q 3450 4097 3450 3541 
Q 3450 3153 3228 2886 
Q 3006 2619 2597 2516 
z
" transform="scale(0.015625)"/>
       </defs>
       <use xlink:href="#DejaVuSans-33"/>
      </g>
     </g>
    </g>
    <g id="ytick_3">
     <g id="line2d_5">
      <g>
       <use xlink:href="#md4fbe78c75" x="18" y="39.12" style="stroke: #000000; stroke-width: 0.8"/>
      </g>
     </g>
     <g id="text_5">
      <!-- 4 -->
      <g transform="translate(4.6375 42.919219)scale(0.1 -0.1)">
       <defs>
        <path id="DejaVuSans-34" d="M 2419 4116 
L 825 1625 
L 2419 1625 
L 2419 4116 
z
M 2253 4666 
L 3047 4666 
L 3047 1625 
L 3713 1625 
L 3713 1100 
L 3047 1100 
L 3047 0 
L 2419 0 
L 2419 1100 
L 313 1100 
L 313 1709 
L 2253 4666 
z
" transform="scale(0.015625)"/>
       </defs>
       <use xlink:href="#DejaVuSans-34"/>
      </g>
     </g>
    </g>
   </g>
   <g id="patch_3">
    <path d="M 18 128.16 
L 18 17.28 
" style="fill: none; stroke: #000000; stroke-width: 0.8; stroke-linejoin: miter; stroke-linecap: square"/>
   </g>
   <g id="patch_4">
    <path d="M 129.6 128.16 
L 129.6 17.28 
" style="fill: none; stroke: #000000; stroke-width: 0.8; stroke-linejoin: miter; stroke-linecap: square"/>
   </g>
   <g id="patch_5">
    <path d="M 18 128.16 
L 129.6 128.16 
" style="fill: none; stroke: #000000; stroke-width: 0.8; stroke-linejoin: miter; stroke-linecap: square"/>
   </g>
   <g id="patch_6">
    <path d="M 18 17.28 
L 129.6 17.28 
" style="fill: none; stroke: #000000; stroke-width: 0.8; stroke-linejoin: miter; stroke-linecap: square"/>
   </g>
  </g>
 </g>
 <defs>
  <clipPath id="p6b3df05511">
   <rect x="18" y="17.28" width="111.6" height="110.88"/>
  </clipPath>
 </defs>
</svg>
